<svg width="22" height="30" viewBox="0 0 22 30" fill="none" xmlns="http://www.w3.org/2000/svg">
<path d="M11 4.33337V0.333374L5.66667 5.66671L11 11V7.00004C15.4133 7.00004 19 10.5867 19 15C19 16.3467 18.6667 17.6267 18.0667 18.7334L20.0133 20.68C21.0533 19.04 21.6667 17.0934 21.6667 15C21.6667 9.10671 16.8933 4.33337 11 4.33337ZM11 23C6.58667 23 3 19.4134 3 15C3 13.6534 3.33333 12.3734 3.93333 11.2667L1.98667 9.32004C0.946665 10.96 0.333332 12.9067 0.333332 15C0.333332 20.8934 5.10667 25.6667 11 25.6667V29.6667L16.3333 24.3334L11 19V23Z" fill="#343760"/>
</svg>
